<svg xmlns="http://www.w3.org/2000/svg" width="1080" height="1080" viewBox="0 0 1080 1080"><defs><radialGradient id="g" cx="50%" cy="42%" r="62%"><stop offset="0%" stop-color="#15110F"/><stop offset="100%" stop-color="#0B0B0C"/></radialGradient></defs>
  <rect width="1080" height="1080" fill="url(#g)"/>
  <circle cx="540" cy="540" r="200" fill="none" stroke="#A45A5A" stroke-width="2" opacity="0.1"/><circle cx="540" cy="540" r="270" fill="none" stroke="#A45A5A" stroke-width="2" opacity="0.1"/><circle cx="540" cy="540" r="340" fill="none" stroke="#A45A5A" stroke-width="2" opacity="0.1"/><circle cx="540" cy="540" r="410" fill="none" stroke="#A45A5A" stroke-width="2" opacity="0.1"/><circle cx="540" cy="540" r="480" fill="none" stroke="#A45A5A" stroke-width="2" opacity="0.1"/>
  <circle cx="540" cy="540" r="498" fill="none" stroke="#A45A5A" stroke-width="5"/>
  <circle cx="540" cy="540" r="478" fill="none" stroke="#F4F0E8" stroke-width="2" opacity="0.55"/><g><path fill="#F4F0E8" transform="translate(181.6 710.4) scale(0.245 -0.245)" d="M88 66Q88 119 139 139L178 153Q204 163 216.5 178.0Q229 193 229 218V1182Q229 1207 216.5 1222.0Q204 1237 178 1247L139 1261Q88 1281 88 1334Q88 1365 108.5 1382.5Q129 1400 172 1400H792Q976 1400 1126.5 1345.0Q1277 1290 1385.5 1189.5Q1494 1089 1552.5 951.5Q1611 814 1611 647Q1611 460 1522.0 313.5Q1433 167 1271.0 83.5Q1109 0 888 0H172Q129 0 108.5 18.0Q88 36 88 66ZM831 140Q916 140 985.0 192.0Q1054 244 1094.5 357.0Q1135 470 1135 653Q1135 797 1108.5 909.5Q1082 1022 1030.5 1100.5Q979 1179 906.0 1219.5Q833 1260 740 1260H692V249Q692 192 721.0 166.0Q750 140 804 140Z"/><path fill="#F4F0E8" transform="translate(572.5 710.4) scale(0.245 -0.245)" d="M781 1261 743 1247Q718 1238 705.0 1222.5Q692 1207 692 1182V214Q692 173 711.5 156.5Q731 140 768 140H845Q897 140 937.0 155.0Q977 170 1012.5 211.0Q1048 252 1086 331L1155 474Q1171 508 1196.5 519.0Q1222 530 1254 520Q1288 511 1301.5 488.5Q1315 466 1304 427L1204 70Q1188 16 1165.0 -10.0Q1142 -36 1095 -36Q1069 -36 1043.5 -27.0Q1018 -18 986.0 -9.0Q954 0 908 0H172Q129 0 108.5 18.0Q88 36 88 66Q88 119 139 139L178 153Q204 162 216.5 177.5Q229 193 229 218V1182Q229 1207 216.5 1222.5Q204 1238 178 1247L139 1261Q88 1281 88 1334Q88 1365 108.5 1382.5Q129 1400 172 1400H748Q791 1400 811.5 1382.5Q832 1365 832 1334Q832 1281 781 1261Z"/></g><g stroke="#A45A5A" stroke-width="3" stroke-linecap="round" fill="none" opacity="0.9"><line x1="390" y1="728" x2="514" y2="728"/><line x1="566" y1="728" x2="690" y2="728"/><path d="M522 728 q9 -13 18 0 q9 13 18 0"/><circle cx="540" cy="728" r="3.2" fill="#A45A5A" stroke="none"/></g></svg>